# Blender 3.4.1
# www.blender.org
mtllib beret.mtl
o Plane
v -0.150527 -0.000000 0.182500 0.3333 0.2667 0.1961
v 0.150527 -0.000000 0.182500 0.3333 0.2667 0.1961
v -0.150527 0.000000 -0.182500 0.3333 0.2667 0.1961
v 0.150527 0.000000 -0.182500 0.3333 0.2667 0.1961
v -0.212878 0.000000 0.000000 0.3333 0.2667 0.1961
v 0.000000 -0.000000 0.258094 0.3333 0.2667 0.1961
v 0.212878 0.000000 0.000000 0.3333 0.2667 0.1961
v 0.000000 0.000000 -0.258094 0.3333 0.2667 0.1961
v 0.000000 0.068761 0.000000 0.3333 0.2667 0.1961
v -0.196674 -0.000000 0.098768 0.3333 0.2667 0.1961
v 0.081465 -0.000000 0.238448 0.3333 0.2667 0.1961
v 0.196674 0.000000 -0.098768 0.3333 0.2667 0.1961
v -0.081465 0.000000 -0.238448 0.3333 0.2667 0.1961
v -0.196674 0.000000 -0.098768 0.3333 0.2667 0.1961
v -0.081465 -0.000000 0.238448 0.3333 0.2667 0.1961
v 0.196674 -0.000000 0.098768 0.3333 0.2667 0.1961
v 0.081465 0.000000 -0.238448 0.3333 0.2667 0.1961
v 0.000000 0.068761 -0.187810 0.3333 0.2667 0.1961
v 0.000000 0.068761 0.187810 0.3333 0.2667 0.1961
v -0.187810 0.068761 0.000000 0.3333 0.2667 0.1961
v 0.187810 0.068761 0.000000 0.3333 0.2667 0.1961
v 0.132801 0.068761 0.132801 0.3333 0.2667 0.1961
v -0.132801 0.068761 0.132801 0.3333 0.2667 0.1961
v -0.132801 0.068761 -0.132801 0.3333 0.2667 0.1961
v 0.132801 0.068761 -0.132801 0.3333 0.2667 0.1961
v 0.000000 0.165173 -0.123547 0.3333 0.2667 0.1961
v 0.074972 0.120101 -0.225806 0.3333 0.2667 0.1961
v 0.180998 0.154544 0.082615 0.3333 0.2667 0.1961
v -0.074972 0.168811 0.210367 0.3333 0.2667 0.1961
v -0.180998 0.134368 -0.098054 0.3333 0.2667 0.1961
v -0.074972 0.120101 -0.225806 0.3333 0.2667 0.1961
v 0.180998 0.134368 -0.098054 0.3333 0.2667 0.1961
v 0.074972 0.168811 0.210367 0.3333 0.2667 0.1961
v 0.081465 0.016905 -0.238448 0.3333 0.2667 0.1961
v 0.196674 0.016905 0.098768 0.3333 0.2667 0.1961
v -0.081465 0.016905 0.238448 0.3333 0.2667 0.1961
v -0.196674 0.016905 -0.098768 0.3333 0.2667 0.1961
v -0.081465 0.016905 -0.238448 0.3333 0.2667 0.1961
v 0.196674 0.016905 -0.098768 0.3333 0.2667 0.1961
v 0.081465 0.016905 0.238448 0.3333 0.2667 0.1961
v -0.196674 0.016905 0.098768 0.3333 0.2667 0.1961
v -0.180998 0.154544 0.082615 0.3333 0.2667 0.1961
v 0.000000 0.016905 -0.258094 0.3333 0.2667 0.1961
v 0.212878 0.016905 0.000000 0.3333 0.2667 0.1961
v 0.000000 0.016905 0.258094 0.3333 0.2667 0.1961
v -0.212878 0.016905 0.000000 0.3333 0.2667 0.1961
v 0.150527 0.016905 -0.182500 0.3333 0.2667 0.1961
v -0.150527 0.016905 -0.182500 0.3333 0.2667 0.1961
v 0.150527 0.016905 0.182500 0.3333 0.2667 0.1961
v -0.150527 0.016905 0.182500 0.3333 0.2667 0.1961
v 0.000000 0.190214 0.100684 0.3333 0.2667 0.1961
v -0.112812 0.177694 -0.011431 0.3333 0.2667 0.1961
v 0.112812 0.177694 -0.011431 0.3333 0.2667 0.1961
v 0.079770 0.186547 0.067846 0.3333 0.2667 0.1961
v -0.079770 0.186547 0.067846 0.3333 0.2667 0.1961
v -0.079770 0.168841 -0.090709 0.3333 0.2667 0.1961
v 0.079770 0.168841 -0.090709 0.3333 0.2667 0.1961
v 0.000000 0.193996 -0.013252 0.3333 0.2667 0.1961
v 0.000000 0.118095 -0.243775 0.3333 0.2667 0.1961
v 0.195910 0.144456 -0.007720 0.3333 0.2667 0.1961
v 0.000000 0.170817 0.228335 0.3333 0.2667 0.1961
v -0.195910 0.144456 -0.007720 0.3333 0.2667 0.1961
v 0.138530 0.125816 -0.174636 0.3333 0.2667 0.1961
v -0.138530 0.125816 -0.174636 0.3333 0.2667 0.1961
v 0.138530 0.163096 0.159197 0.3333 0.2667 0.1961
v -0.138530 0.163096 0.159197 0.3333 0.2667 0.1961
v -0.246673 0.099060 0.121998 0.3333 0.2667 0.1961
v -0.247793 0.077823 0.123771 0.3333 0.2667 0.1961
v 0.102218 0.118424 0.296241 0.3333 0.2667 0.1961
v 0.103110 0.096556 0.300151 0.3333 0.2667 0.1961
v 0.245891 0.052405 -0.122841 0.3333 0.2667 0.1961
v 0.246673 0.071563 -0.124227 0.3333 0.2667 0.1961
v -0.101387 0.035598 -0.295239 0.3333 0.2667 0.1961
v -0.102218 0.052012 -0.298450 0.3333 0.2667 0.1961
v -0.246673 0.071563 -0.124227 0.3333 0.2667 0.1961
v -0.245891 0.052405 -0.122841 0.3333 0.2667 0.1961
v -0.102219 0.118424 0.296241 0.3333 0.2667 0.1961
v -0.103110 0.096556 0.300151 0.3333 0.2667 0.1961
v 0.247793 0.077823 0.123771 0.3333 0.2667 0.1961
v 0.246673 0.099060 0.121998 0.3333 0.2667 0.1961
v 0.102219 0.052012 -0.298450 0.3333 0.2667 0.1961
v 0.101387 0.035598 -0.295239 0.3333 0.2667 0.1961
v 0.000000 0.049254 -0.322974 0.3333 0.2667 0.1961
v 0.000000 0.033313 -0.319433 0.3333 0.2667 0.1961
v 0.266973 0.085332 -0.001117 0.3333 0.2667 0.1961
v 0.267199 0.064907 0.000000 0.3333 0.2667 0.1961
v 0.000000 0.099218 0.325057 0.3333 0.2667 0.1961
v 0.000000 0.121144 0.320770 0.3333 0.2667 0.1961
v -0.267199 0.064907 0.000000 0.3333 0.2667 0.1961
v -0.266973 0.085332 -0.001117 0.3333 0.2667 0.1961
v 0.187630 0.042205 -0.226311 0.3333 0.2667 0.1961
v 0.188836 0.059855 -0.228640 0.3333 0.2667 0.1961
v -0.187630 0.042205 -0.226311 0.3333 0.2667 0.1961
v -0.188836 0.059855 -0.228640 0.3333 0.2667 0.1961
v 0.190197 0.089005 0.229342 0.3333 0.2667 0.1961
v 0.188836 0.110674 0.226421 0.3333 0.2667 0.1961
v -0.190197 0.089005 0.229342 0.3333 0.2667 0.1961
v -0.188836 0.110674 0.226421 0.3333 0.2667 0.1961
v -0.206309 0.042922 0.104782 0.3333 0.2667 0.1961
v -0.224465 0.037999 -0.001094 0.3333 0.2667 0.1961
v -0.157056 0.047670 0.193873 0.3333 0.2667 0.1961
v 0.157056 0.047670 0.193874 0.3333 0.2667 0.1961
v 0.084589 0.051176 0.252833 0.3333 0.2667 0.1961
v 0.000000 0.052479 0.273376 0.3333 0.2667 0.1961
v 0.208577 0.033690 -0.107674 0.3333 0.2667 0.1961
v 0.224465 0.037999 -0.001094 0.3333 0.2667 0.1961
v 0.160720 0.030314 -0.198865 0.3333 0.2667 0.1961
v -0.087506 0.028040 -0.260504 0.3333 0.2667 0.1961
v 0.000000 0.027211 -0.282329 0.3333 0.2667 0.1961
v -0.160720 0.030314 -0.198865 0.3333 0.2667 0.1961
v -0.208577 0.033690 -0.107674 0.3333 0.2667 0.1961
v -0.084589 0.051176 0.252833 0.3333 0.2667 0.1961
v 0.206309 0.042922 0.104782 0.3333 0.2667 0.1961
v 0.087506 0.028040 -0.260504 0.3333 0.2667 0.1961
v -0.006324 0.190021 -0.006480 0.3333 0.2667 0.1961
v 0.006324 0.190021 -0.006480 0.3333 0.2667 0.1961
v -0.006324 0.188710 -0.019059 0.3333 0.2667 0.1961
v 0.006324 0.188710 -0.019059 0.3333 0.2667 0.1961
v -0.008943 0.189365 -0.012769 0.3333 0.2667 0.1961
v 0.000000 0.190292 -0.003875 0.3333 0.2667 0.1961
v 0.008943 0.189365 -0.012769 0.3333 0.2667 0.1961
v 0.000000 0.188438 -0.021664 0.3333 0.2667 0.1961
v 0.000000 0.189365 -0.012769 0.3333 0.2667 0.1961
v -0.006324 0.245508 -0.012261 0.3333 0.2667 0.1961
v 0.006324 0.245508 -0.012261 0.3333 0.2667 0.1961
v -0.006324 0.244197 -0.024840 0.3333 0.2667 0.1961
v 0.006324 0.244197 -0.024840 0.3333 0.2667 0.1961
v -0.008943 0.244852 -0.018551 0.3333 0.2667 0.1961
v 0.000000 0.245779 -0.009656 0.3333 0.2667 0.1961
v 0.008943 0.244852 -0.018551 0.3333 0.2667 0.1961
v 0.000000 0.243925 -0.027446 0.3333 0.2667 0.1961
v 0.000000 0.244852 -0.018551 0.3333 0.2667 0.1961
vn -0.4095 -0.8496 0.3324
vn 0.1976 -0.8702 -0.4514
vn 0.3455 -0.8886 -0.3017
vn 0.3948 -0.9188 -0.0011
vn 0.4095 -0.8496 0.3324
vn -0.1976 -0.8702 -0.4514
vn -0.0000 -0.8535 -0.5211
vn -0.0000 -0.9064 0.4225
vn 0.4095 -0.8496 -0.3324
vn 0.5825 -0.8128 -0.0000
vn -0.0000 -1.0000 -0.0000
vn -0.0000 -0.9064 -0.4225
vn -0.4095 -0.8496 -0.3324
vn -0.5825 -0.8128 -0.0000
vn 0.3584 -0.9336 -0.0000
vn 0.3948 -0.9188 0.0011
vn -0.0000 -0.8535 0.5211
vn 0.1976 -0.8702 0.4514
vn 0.3455 -0.8886 0.3017
vn -0.3948 -0.9188 0.0011
vn -0.3584 -0.9336 -0.0000
vn -0.3455 -0.8886 0.3017
vn -0.1976 -0.8702 0.4514
vn -0.3948 -0.9188 -0.0011
vn -0.3455 -0.8886 -0.3017
vn 0.3660 -0.8960 -0.2514
vn 0.6283 -0.6114 -0.4810
vn 0.8085 -0.5369 -0.2408
vn 0.5746 -0.8048 -0.1492
vn -0.7008 -0.4579 -0.5470
vn -0.3882 -0.5499 -0.7396
vn -0.8946 -0.3462 -0.2825
vn -0.0000 -0.2102 0.9777
vn -0.4374 -0.2041 0.8758
vn 0.7008 -0.4579 -0.5470
vn 0.8946 -0.3462 -0.2825
vn 0.9661 -0.2577 0.0133
vn 0.9233 -0.2093 0.3222
vn -0.3887 0.5518 0.7378
vn -0.2117 0.9313 0.2963
vn -0.3766 0.9033 0.2055
vn -0.6819 0.5108 0.5235
vn 0.8523 0.4597 0.2495
vn 0.4700 0.8793 0.0777
vn 0.3766 0.9033 0.2055
vn 0.6819 0.5108 0.5235
vn 0.7171 -0.6316 0.2947
vn 0.8588 -0.3915 0.3305
vn 0.7047 -0.3397 0.6229
vn 0.5879 -0.6032 0.5390
vn -0.0000 -0.5843 -0.8116
vn 0.3882 -0.5499 -0.7396
vn 0.4033 0.2999 -0.8645
vn 0.2117 0.8430 -0.4945
vn 0.3766 0.8357 -0.3997
vn 0.7011 0.3279 -0.6332
vn -0.8648 0.3653 -0.3444
vn -0.4700 0.8405 -0.2698
vn -0.3766 0.8357 -0.3997
vn -0.7011 0.3279 -0.6332
vn 0.7542 -0.1968 0.6265
vn 0.4374 -0.2041 0.8758
vn -0.7542 -0.1968 0.6265
vn -0.5879 -0.6032 0.5390
vn -0.7047 -0.3397 0.6229
vn -0.8588 -0.3915 0.3305
vn -0.7171 -0.6316 0.2947
vn 0.3351 -0.6006 0.7260
vn 0.4081 -0.3056 0.8603
vn -0.0000 -0.2932 0.9561
vn -0.0000 -0.6030 0.7977
vn -0.8877 -0.4590 0.0351
vn -0.7108 -0.7019 0.0471
vn -0.3660 -0.8960 -0.2514
vn -0.6283 -0.6114 -0.4810
vn -0.3508 -0.6648 -0.6596
vn -0.1665 -0.9463 -0.2771
vn -0.2117 0.8430 -0.4945
vn -0.4033 0.2999 -0.8645
vn -0.4081 -0.3056 0.8603
vn -0.3351 -0.6006 0.7260
vn 0.7108 -0.7019 0.0471
vn 0.8877 -0.4590 0.0351
vn -0.0000 -0.6840 -0.7295
vn -0.0000 -0.9608 -0.2772
vn -0.9233 -0.2093 0.3222
vn -0.9661 -0.2577 0.0133
vn 0.2117 0.9313 0.2963
vn 0.3887 0.5518 0.7378
vn -0.5746 -0.8048 -0.1492
vn -0.8085 -0.5369 -0.2408
vn -0.0000 0.9429 0.3330
vn -0.0000 0.5679 0.8231
vn -0.9112 0.4096 -0.0447
vn -0.5104 0.8547 -0.0954
vn 0.4700 0.8405 -0.2698
vn 0.8648 0.3653 -0.3444
vn 0.5104 0.8547 -0.0954
vn 0.9112 0.4096 -0.0447
vn -0.8523 0.4597 0.2495
vn -0.4700 0.8793 0.0777
vn 0.3508 -0.6648 -0.6596
vn 0.1665 -0.9463 -0.2771
vn -0.0000 0.2888 -0.9574
vn -0.0000 0.8463 -0.5328
vn 0.1798 0.9828 0.0414
vn 0.2491 0.9625 -0.1075
vn -0.0000 0.9966 0.0826
vn -0.0000 0.9938 -0.1110
vn -0.0000 0.9538 -0.3004
vn 0.1798 0.9495 -0.2572
vn -0.2491 0.9625 -0.1075
vn -0.1798 0.9495 -0.2572
vn -0.1798 0.9828 0.0414
vn -0.0000 -0.9946 0.1036
vn -0.0000 -0.7073 -0.7069
vn 0.5490 -0.6838 -0.4807
vn 0.7764 -0.6269 0.0653
vn -0.7764 -0.6269 0.0653
vn -0.5490 -0.6838 -0.4807
vn -0.5490 -0.5700 0.6113
vn -0.0000 -0.5464 0.8375
vn 0.5490 -0.5700 0.6113
vn -0.0000 0.9946 -0.1036
vn 0.7764 0.6269 -0.0653
vn 0.5490 0.5700 -0.6113
vn -0.0000 0.5464 -0.8375
vn -0.7764 0.6269 -0.0653
vn -0.5490 0.5700 -0.6113
vn -0.5490 0.6838 0.4807
vn -0.0000 0.7073 0.7069
vn 0.5490 0.6838 0.4807
vt 0.000000 0.000000
vt 1.000000 0.000000
vt 0.000000 1.000000
vt 1.000000 1.000000
vt 0.000000 0.500000
vt 0.500000 0.000000
vt 1.000000 0.500000
vt 0.500000 1.000000
vt 0.500000 0.500000
vt 0.000000 0.250000
vt 0.750000 0.000000
vt 1.000000 0.750000
vt 0.250000 1.000000
vt 0.000000 0.750000
vt 0.250000 0.000000
vt 1.000000 0.250000
vt 0.750000 1.000000
vt 0.500000 0.750000
vt 0.500000 0.250000
vt 0.250000 0.500000
vt 0.750000 0.500000
vt 0.750000 0.250000
vt 0.250000 0.250000
vt 0.250000 0.750000
vt 0.750000 0.750000
vt 0.500000 0.750000
vt 0.750000 1.000000
vt 1.000000 0.250000
vt 0.250000 0.000000
vt 0.000000 0.750000
vt 0.250000 1.000000
vt 1.000000 0.750000
vt 0.750000 0.000000
vt 0.750000 1.000000
vt 1.000000 0.250000
vt 0.250000 0.000000
vt 0.000000 0.750000
vt 0.250000 1.000000
vt 1.000000 0.750000
vt 0.750000 0.000000
vt 0.000000 0.250000
vt 0.000000 0.250000
vt 0.500000 1.000000
vt 1.000000 0.500000
vt 0.500000 0.000000
vt 0.000000 0.500000
vt 1.000000 1.000000
vt 0.000000 1.000000
vt 1.000000 0.000000
vt 0.000000 0.000000
vt 0.500000 0.250000
vt 0.250000 0.500000
vt 0.750000 0.500000
vt 0.750000 0.250000
vt 0.250000 0.250000
vt 0.250000 0.750000
vt 0.750000 0.750000
vt 0.500000 0.500000
vt 0.500000 1.000000
vt 1.000000 0.500000
vt 0.500000 0.000000
vt 0.000000 0.500000
vt 1.000000 1.000000
vt 0.000000 1.000000
vt 1.000000 0.000000
vt 0.000000 0.000000
vt 0.000000 0.250000
vt 0.000000 0.250000
vt 0.750000 0.000000
vt 0.750000 0.000000
vt 1.000000 0.750000
vt 1.000000 0.750000
vt 0.250000 1.000000
vt 0.250000 1.000000
vt 0.000000 0.750000
vt 0.000000 0.750000
vt 0.250000 0.000000
vt 0.250000 0.000000
vt 1.000000 0.250000
vt 1.000000 0.250000
vt 0.750000 1.000000
vt 0.750000 1.000000
vt 0.500000 1.000000
vt 0.500000 1.000000
vt 1.000000 0.500000
vt 1.000000 0.500000
vt 0.500000 0.000000
vt 0.500000 0.000000
vt 0.000000 0.500000
vt 0.000000 0.500000
vt 1.000000 1.000000
vt 1.000000 1.000000
vt 0.000000 1.000000
vt 0.000000 1.000000
vt 1.000000 0.000000
vt 1.000000 0.000000
vt 0.000000 0.000000
vt 0.000000 0.000000
vt 0.000000 0.250000
vt 0.000000 0.500000
vt 0.000000 0.000000
vt 1.000000 0.000000
vt 0.750000 0.000000
vt 0.500000 0.000000
vt 1.000000 0.750000
vt 1.000000 0.500000
vt 1.000000 1.000000
vt 0.250000 1.000000
vt 0.500000 1.000000
vt 0.000000 1.000000
vt 0.000000 0.750000
vt 0.250000 0.000000
vt 1.000000 0.250000
vt 0.750000 1.000000
vt 0.000000 0.000000
vt 1.000000 0.000000
vt 0.000000 1.000000
vt 1.000000 1.000000
vt 0.000000 0.500000
vt 0.500000 0.000000
vt 1.000000 0.500000
vt 0.500000 1.000000
vt 0.500000 0.500000
vt 0.000000 0.000000
vt 1.000000 0.000000
vt 0.000000 1.000000
vt 1.000000 1.000000
vt 0.000000 0.500000
vt 0.500000 0.000000
vt 1.000000 0.500000
vt 0.500000 1.000000
vt 0.500000 0.500000
s 1
f 25/25/1 17/17/2 4/4/3 12/12/4
f 24/24/5 13/13/6 8/8/7 18/18/8
f 23/23/9 20/20/10 9/9/11 19/19/12
f 22/22/13 21/21/14 7/7/15 16/16/16
f 19/19/12 9/9/11 21/21/14 22/22/13
f 6/6/17 19/19/12 22/22/13 11/11/18
f 11/11/18 22/22/13 16/16/16 2/2/19
f 10/10/20 5/5/21 20/20/10 23/23/9
f 1/1/22 10/10/20 23/23/9 15/15/23
f 15/15/23 23/23/9 19/19/12 6/6/17
f 14/14/24 3/3/25 13/13/6 24/24/5
f 5/5/21 14/14/24 24/24/5 20/20/10
f 20/20/10 24/24/5 18/18/8 9/9/11
f 18/18/8 8/8/7 17/17/2 25/25/1
f 9/9/11 18/18/8 25/25/1 21/21/14
f 21/21/14 25/25/1 12/12/4 7/7/15
f 107/107/26 91/91/27 71/71/28 105/105/29
f 3/3/25 48/48/30 38/38/31 13/13/6
f 14/14/24 37/37/32 48/48/30 3/3/25
f 6/6/17 45/45/33 36/36/34 15/15/23
f 4/4/3 47/47/35 39/39/36 12/12/4
f 7/7/15 44/44/37 35/35/38 16/16/16
f 77/77/39 29/29/40 66/66/41 98/98/42
f 80/80/43 28/28/44 65/65/45 96/96/46
f 113/113/47 79/79/48 95/95/49 102/102/50
f 8/8/7 43/43/51 34/34/52 17/17/2
f 81/81/53 27/27/54 63/63/55 92/92/56
f 75/75/57 30/30/58 64/64/59 94/94/60
f 13/13/6 38/38/31 43/43/51 8/8/7
f 16/16/16 35/35/38 49/49/61 2/2/19
f 2/2/19 49/49/61 40/40/62 11/11/18
f 17/17/2 34/34/52 47/47/35 4/4/3
f 15/15/23 36/36/34 50/50/63 1/1/22
f 101/101/64 97/97/65 68/68/66 99/99/67
f 103/103/68 70/70/69 87/87/70 104/104/71
f 99/99/67 68/68/66 89/89/72 100/100/73
f 110/110/74 93/93/75 73/73/76 108/108/77
f 94/94/60 64/64/59 31/31/78 74/74/79
f 104/104/71 87/87/70 78/78/80 112/112/81
f 106/106/82 86/86/83 79/79/48 113/113/47
f 108/108/77 73/73/76 84/84/84 109/109/85
f 1/1/22 50/50/63 41/41/86 10/10/20
f 12/12/4 39/39/36 44/44/37 7/7/15
f 11/11/18 40/40/62 45/45/33 6/6/17
f 10/10/20 41/41/86 46/46/87 5/5/21
f 5/5/21 46/46/87 37/37/32 14/14/24
f 96/96/46 65/65/45 33/33/88 69/69/89
f 102/102/50 95/95/49 70/70/69 103/103/68
f 111/111/90 76/76/91 93/93/75 110/110/74
f 69/69/89 33/33/88 61/61/92 88/88/93
f 90/90/94 62/62/95 30/30/58 75/75/57
f 92/92/56 63/63/55 32/32/96 72/72/97
f 88/88/93 61/61/92 29/29/40 77/77/39
f 72/72/97 32/32/96 60/60/98 85/85/99
f 67/67/100 42/42/101 62/62/95 90/90/94
f 100/100/73 89/89/72 76/76/91 111/111/90
f 109/109/85 84/84/84 82/82/102 114/114/103
f 85/85/99 60/60/98 28/28/44 80/80/43
f 112/112/81 78/78/80 97/97/65 101/101/64
f 105/105/29 71/71/28 86/86/83 106/106/82
f 114/114/103 82/82/102 91/91/27 107/107/26
f 83/83/104 59/59/105 27/27/54 81/81/53
f 74/74/79 31/31/78 59/59/105 83/83/104
f 54/54/106 28/28/44 60/60/98 53/53/107
f 51/51/108 54/54/106 53/53/107 58/58/109
f 26/26/110 57/57/111 27/27/54 59/59/105
f 52/52/112 58/58/109 26/26/110 56/56/113
f 66/66/41 29/29/40 55/55/114 42/42/101
f 61/61/92 33/33/88 54/54/106 51/51/108
f 42/42/101 55/55/114 52/52/112 62/62/95
f 33/33/88 65/65/45 28/28/44 54/54/106
f 57/57/111 32/32/96 63/63/55 27/27/54
f 29/29/40 61/61/92 51/51/108 55/55/114
f 62/62/95 52/52/112 56/56/113 30/30/58
f 58/58/109 53/53/107 57/57/111 26/26/110
f 56/56/113 26/26/110 59/59/105 31/31/78
f 30/30/58 56/56/113 31/31/78 64/64/59
f 55/55/114 51/51/108 58/58/109 52/52/112
f 53/53/107 60/60/98 32/32/96 57/57/111
f 84/84/84 73/73/76 74/74/79 83/83/104
f 70/70/69 95/95/49 96/96/46 69/69/89
f 78/78/80 87/87/70 88/88/93 77/77/39
f 86/86/83 71/71/28 72/72/97 85/85/99
f 82/82/102 84/84/84 83/83/104 81/81/53
f 95/95/49 79/79/48 80/80/43 96/96/46
f 76/76/91 89/89/72 90/90/94 75/75/57
f 79/79/48 86/86/83 85/85/99 80/80/43
f 71/71/28 91/91/27 92/92/56 72/72/97
f 87/87/70 70/70/69 69/69/89 88/88/93
f 73/73/76 93/93/75 94/94/60 74/74/79
f 93/93/75 76/76/91 75/75/57 94/94/60
f 68/68/66 97/97/65 98/98/42 67/67/100
f 91/91/27 82/82/102 81/81/53 92/92/56
f 89/89/72 68/68/66 67/67/100 90/90/94
f 97/97/65 78/78/80 77/77/39 98/98/42
f 98/98/42 66/66/41 42/42/101 67/67/100
f 34/34/52 114/114/103 107/107/26 47/47/35
f 39/39/36 105/105/29 106/106/82 44/44/37
f 36/36/34 112/112/81 101/101/64 50/50/63
f 43/43/51 109/109/85 114/114/103 34/34/52
f 46/46/87 100/100/73 111/111/90 37/37/32
f 37/37/32 111/111/90 110/110/74 48/48/30
f 49/49/61 102/102/50 103/103/68 40/40/62
f 38/38/31 108/108/77 109/109/85 43/43/51
f 44/44/37 106/106/82 113/113/47 35/35/38
f 45/45/33 104/104/71 112/112/81 36/36/34
f 48/48/30 110/110/74 108/108/77 38/38/31
f 41/41/86 99/99/67 100/100/73 46/46/87
f 40/40/62 103/103/68 104/104/71 45/45/33
f 50/50/63 101/101/64 99/99/67 41/41/86
f 35/35/38 113/113/47 102/102/50 49/49/61
f 47/47/35 107/107/26 105/105/29 39/39/36
f 123/123/115 122/122/116 118/118/117 121/121/118
f 119/119/119 117/117/120 122/122/116 123/123/115
f 115/115/121 119/119/119 123/123/115 120/120/122
f 120/120/122 123/123/115 121/121/118 116/116/123
f 132/132/124 130/130/125 127/127/126 131/131/127
f 128/128/128 132/132/124 131/131/127 126/126/129
f 124/124/130 129/129/131 132/132/124 128/128/128
f 129/129/131 125/125/132 130/130/125 132/132/124
f 116/116/123 121/121/118 130/130/125 125/125/132
f 117/117/120 119/119/119 128/128/128 126/126/129
f 121/121/118 118/118/117 127/127/126 130/130/125
f 119/119/119 115/115/121 124/124/130 128/128/128
f 118/118/117 122/122/116 131/131/127 127/127/126
f 115/115/121 120/120/122 129/129/131 124/124/130
f 122/122/116 117/117/120 126/126/129 131/131/127
f 120/120/122 116/116/123 125/125/132 129/129/131
