# Blender 3.4.1
# www.blender.org
mtllib nya.mtl
o ears
v 0.132589 0.079077 0.007223 1.0000 0.8000 0.9215
v 0.121306 0.077868 -0.007992 1.0000 0.8000 0.9215
v 0.145878 0.060208 -0.004705 1.0000 0.8000 0.9215
v 0.109510 0.069498 0.020584 1.0000 0.8000 0.9215
v 0.130584 0.069643 0.009438 1.0000 0.6277 0.7647
v 0.114366 0.065807 0.020387 1.0000 0.6824 0.8157
v 0.142652 0.058058 0.000307 1.0000 0.6824 0.8157
v 0.088562 -0.013918 -0.006713 1.0000 0.4551 0.6118
v 0.070286 -0.002692 0.044463 1.0000 0.6277 0.7647
v 0.141385 -0.032415 -0.002028 1.0000 0.6277 0.7647
v 0.077151 -0.053082 0.003784 1.0000 0.4551 0.6118
v 0.064972 -0.080384 0.002512 1.0000 0.4551 0.6118
v 0.056725 -0.045355 0.044520 1.0000 0.6277 0.7647
v 0.117067 -0.068864 0.005530 1.0000 0.6277 0.7647
v 0.125187 -0.073858 -0.003784 1.0000 0.8000 0.9215
v 0.093320 -0.093276 0.006533 1.0000 0.6277 0.7647
v 0.097689 -0.095291 0.000797 1.0000 0.8000 0.9215
v 0.089771 -0.097688 -0.013799 1.0000 0.8000 0.9215
v 0.114640 -0.074024 -0.026484 1.0000 0.8000 0.9215
v 0.073547 -0.091638 -0.017138 1.0000 0.8000 0.9215
v 0.087626 -0.064941 -0.036527 1.0000 0.8000 0.9215
v 0.053425 -0.079215 -0.009618 1.0000 0.8000 0.9215
v 0.050831 -0.048830 -0.028318 1.0000 0.8000 0.9215
v 0.039071 -0.076907 0.006513 1.0000 0.8000 0.9215
v 0.032028 -0.041200 0.001716 1.0000 0.8000 0.9215
v 0.035612 -0.074818 0.022204 1.0000 0.8000 0.9215
v 0.030447 -0.038692 0.029215 1.0000 0.8000 0.9215
v 0.046899 -0.074575 0.033268 1.0000 0.8000 0.9215
v 0.047156 -0.041913 0.046112 1.0000 0.8000 0.9215
v 0.053078 -0.076961 0.032260 1.0000 0.6277 0.7647
v 0.055976 0.003106 0.048110 1.0000 0.8000 0.9215
v 0.041527 0.006566 0.028336 1.0000 0.8000 0.9215
v 0.044506 0.003034 -0.002925 1.0000 0.8000 0.9215
v 0.064860 -0.006797 -0.035075 1.0000 0.8000 0.9215
v 0.092766 0.068878 -0.003390 1.0000 0.8000 0.9215
v 0.108779 0.070636 -0.017903 1.0000 0.8000 0.9215
v 0.099005 0.071358 0.006869 1.0000 0.8000 0.9215
v 0.124049 0.058789 -0.026787 1.0000 0.8000 0.9215
v 0.135291 0.060396 -0.018718 1.0000 0.8000 0.9215
v 0.135746 -0.032151 -0.034510 1.0000 0.8000 0.9215
v 0.149259 -0.035220 -0.011590 1.0000 0.8000 0.9215
v 0.105033 -0.022259 -0.044431 1.0000 0.8000 0.9215
v 0.101469 0.023560 -0.009825 1.0000 0.4551 0.6118
v 0.115827 0.050636 -0.003344 1.0000 0.4551 0.6118
v 0.102296 0.054156 0.028492 1.0000 0.6277 0.7647
v 0.082867 0.026539 0.039256 1.0000 0.6277 0.7647
v 0.147383 0.003596 -0.003151 1.0000 0.6277 0.7647
v 0.146644 0.039036 -0.001536 1.0000 0.6277 0.7647
v 0.071410 0.030282 0.041834 1.0000 0.8000 0.9215
v 0.093821 0.056876 0.030128 1.0000 0.8000 0.9215
v 0.060141 0.035452 0.021556 1.0000 0.8000 0.9215
v 0.084380 0.061092 0.012483 1.0000 0.8000 0.9215
v 0.064268 0.036006 -0.006181 1.0000 0.8000 0.9215
v 0.086456 0.062183 -0.007066 1.0000 0.8000 0.9215
v 0.099640 0.058538 -0.025852 1.0000 0.8000 0.9215
v 0.082964 0.030917 -0.032634 1.0000 0.8000 0.9215
v 0.114844 0.015791 -0.040668 1.0000 0.8000 0.9215
v 0.120948 0.048558 -0.031888 1.0000 0.8000 0.9215
v 0.139943 0.004224 -0.032534 1.0000 0.8000 0.9215
v 0.138974 0.039952 -0.025697 1.0000 0.8000 0.9215
v 0.151642 0.036487 -0.009262 1.0000 0.8000 0.9215
v 0.153680 0.000162 -0.012370 1.0000 0.8000 0.9215
v -0.132590 0.079077 0.007223 1.0000 0.8000 0.9215
v -0.121307 0.077868 -0.007992 1.0000 0.8000 0.9215
v -0.145880 0.060208 -0.004705 1.0000 0.8000 0.9215
v -0.109511 0.069498 0.020584 1.0000 0.8000 0.9215
v -0.130585 0.069643 0.009438 1.0000 0.6277 0.7647
v -0.114367 0.065807 0.020387 1.0000 0.6824 0.8157
v -0.142653 0.058058 0.000307 1.0000 0.6824 0.8157
v -0.088563 -0.013918 -0.006713 1.0000 0.4551 0.6118
v -0.070288 -0.002692 0.044463 1.0000 0.6277 0.7647
v -0.141386 -0.032415 -0.002028 1.0000 0.6277 0.7647
v -0.077152 -0.053082 0.003784 1.0000 0.4551 0.6118
v -0.064973 -0.080384 0.002512 1.0000 0.4551 0.6118
v -0.056727 -0.045355 0.044520 1.0000 0.6277 0.7647
v -0.117068 -0.068864 0.005530 1.0000 0.6277 0.7647
v -0.125188 -0.073858 -0.003784 1.0000 0.8000 0.9215
v -0.093321 -0.093276 0.006533 1.0000 0.6277 0.7647
v -0.097690 -0.095291 0.000797 1.0000 0.8000 0.9215
v -0.089772 -0.097688 -0.013799 1.0000 0.8000 0.9215
v -0.114641 -0.074024 -0.026484 1.0000 0.8000 0.9215
v -0.073548 -0.091638 -0.017138 1.0000 0.8000 0.9215
v -0.087627 -0.064941 -0.036527 1.0000 0.8000 0.9215
v -0.053426 -0.079215 -0.009618 1.0000 0.8000 0.9215
v -0.050832 -0.048830 -0.028318 1.0000 0.8000 0.9215
v -0.039072 -0.076907 0.006513 1.0000 0.8000 0.9215
v -0.032029 -0.041200 0.001716 1.0000 0.8000 0.9215
v -0.035613 -0.074818 0.022204 1.0000 0.8000 0.9215
v -0.030448 -0.038692 0.029215 1.0000 0.8000 0.9215
v -0.046900 -0.074575 0.033268 1.0000 0.8000 0.9215
v -0.047157 -0.041913 0.046112 1.0000 0.8000 0.9215
v -0.053079 -0.076961 0.032260 1.0000 0.6277 0.7647
v -0.055977 0.003106 0.048110 1.0000 0.8000 0.9215
v -0.041528 0.006566 0.028336 1.0000 0.8000 0.9215
v -0.044507 0.003034 -0.002925 1.0000 0.8000 0.9215
v -0.064861 -0.006797 -0.035075 1.0000 0.8000 0.9215
v -0.092767 0.068878 -0.003390 1.0000 0.8000 0.9215
v -0.108780 0.070636 -0.017903 1.0000 0.8000 0.9215
v -0.099007 0.071358 0.006869 1.0000 0.8000 0.9215
v -0.124050 0.058789 -0.026787 1.0000 0.8000 0.9215
v -0.135292 0.060396 -0.018718 1.0000 0.8000 0.9215
v -0.135747 -0.032151 -0.034510 1.0000 0.8000 0.9215
v -0.149260 -0.035220 -0.011590 1.0000 0.8000 0.9215
v -0.105034 -0.022259 -0.044431 1.0000 0.8000 0.9215
v -0.101471 0.023560 -0.009825 1.0000 0.4551 0.6118
v -0.115829 0.050636 -0.003344 1.0000 0.4551 0.6118
v -0.102298 0.054156 0.028492 1.0000 0.6277 0.7647
v -0.082868 0.026539 0.039256 1.0000 0.6277 0.7647
v -0.147384 0.003596 -0.003151 1.0000 0.6277 0.7647
v -0.146645 0.039036 -0.001536 1.0000 0.6277 0.7647
v -0.071411 0.030282 0.041834 1.0000 0.8000 0.9215
v -0.093823 0.056876 0.030128 1.0000 0.8000 0.9215
v -0.060143 0.035452 0.021556 1.0000 0.8000 0.9215
v -0.084381 0.061092 0.012483 1.0000 0.8000 0.9215
v -0.064269 0.036006 -0.006181 1.0000 0.8000 0.9215
v -0.086457 0.062183 -0.007066 1.0000 0.8000 0.9215
v -0.099641 0.058538 -0.025852 1.0000 0.8000 0.9215
v -0.082965 0.030917 -0.032634 1.0000 0.8000 0.9215
v -0.114845 0.015791 -0.040668 1.0000 0.8000 0.9215
v -0.120949 0.048558 -0.031888 1.0000 0.8000 0.9215
v -0.139944 0.004224 -0.032534 1.0000 0.8000 0.9215
v -0.138975 0.039952 -0.025697 1.0000 0.8000 0.9215
v -0.151643 0.036487 -0.009262 1.0000 0.8000 0.9215
v -0.153681 0.000162 -0.012370 1.0000 0.8000 0.9215
vn 0.4919 0.8008 0.3417
vn 0.1037 0.9460 -0.3071
vn -0.3994 0.9058 0.1415
vn 0.0025 0.7234 0.6904
vn 0.5528 0.5297 -0.6433
vn 0.9107 0.4130 0.0088
vn 0.5327 -0.0931 0.8412
vn 0.5203 -0.0792 0.8503
vn 0.5773 -0.1319 0.8058
vn -0.1404 0.5819 0.8011
vn 0.5954 -0.1152 0.7951
vn 0.4384 -0.0520 0.8973
vn 0.4357 -0.0204 0.8998
vn 0.4575 -0.2456 0.8546
vn 0.5163 -0.0617 0.8542
vn 0.3773 -0.4429 0.8133
vn 0.4607 -0.0614 0.8855
vn 0.6043 -0.1364 0.7850
vn 0.5019 -0.2791 0.8187
vn 0.5127 -0.0827 0.8546
vn 0.3354 -0.1573 0.9289
vn 0.5839 -0.3860 0.7142
vn 0.4693 -0.1729 0.8659
vn 0.1977 -0.2052 0.9585
vn 0.7710 -0.6060 0.1957
vn 0.6354 -0.7281 0.2572
vn 0.9487 -0.3091 0.0669
vn 0.4642 -0.5833 -0.6665
vn 0.3126 -0.7174 -0.6226
vn -0.0979 -0.3538 -0.9302
vn -0.2056 -0.5167 -0.8311
vn -0.6226 -0.1450 -0.7690
vn -0.6349 -0.3809 -0.6722
vn -0.9446 0.0005 -0.3283
vn -0.9140 -0.2422 -0.3255
vn -0.9455 0.0135 0.3254
vn -0.9384 -0.2186 0.2675
vn -0.3529 -0.1268 0.9270
vn -0.3570 -0.3318 0.8732
vn -0.3182 0.2163 0.9230
vn -0.8787 0.3899 0.2755
vn 0.9889 0.1466 -0.0242
vn -0.6162 0.7571 0.2172
vn -0.8727 0.3415 -0.3491
vn -0.5202 0.8353 -0.1782
vn -0.6561 0.6876 -0.3110
vn -0.3447 0.5396 -0.7681
vn -0.1730 0.8031 -0.5702
vn -0.5282 0.1675 -0.8324
vn 0.2415 0.5261 -0.8154
vn 0.1726 0.3384 -0.9250
vn -0.4437 0.3592 -0.8210
vn -0.7706 0.5351 -0.3463
vn -0.7520 0.6242 0.2120
vn 0.1096 0.1590 -0.9812
vn 0.0402 -0.0559 -0.9976
vn 0.6185 0.0480 -0.7843
vn 0.5929 -0.2402 -0.7686
vn 0.9994 -0.0342 0.0043
vn 0.6299 0.2309 -0.7415
vn -0.2267 0.4365 0.8707
vn 0.6167 -0.1083 0.7797
vn -0.4919 0.8008 0.3417
vn -0.0025 0.7234 0.6904
vn 0.3994 0.9058 0.1415
vn -0.1037 0.9460 -0.3071
vn -0.5528 0.5297 -0.6433
vn -0.9107 0.4130 0.0088
vn -0.5203 -0.0793 0.8503
vn -0.5327 -0.0931 0.8412
vn -0.5773 -0.1319 0.8058
vn 0.1403 0.5819 0.8011
vn -0.5954 -0.1152 0.7951
vn -0.4384 -0.0520 0.8973
vn -0.5163 -0.0617 0.8542
vn -0.4575 -0.2456 0.8546
vn -0.4357 -0.0204 0.8998
vn -0.3773 -0.4429 0.8133
vn -0.4606 -0.0614 0.8855
vn -0.6044 -0.1364 0.7850
vn -0.5127 -0.0827 0.8546
vn -0.5019 -0.2791 0.8187
vn -0.3354 -0.1573 0.9289
vn -0.4693 -0.1729 0.8659
vn -0.5839 -0.3860 0.7142
vn -0.1977 -0.2052 0.9585
vn -0.7710 -0.6060 0.1957
vn -0.6354 -0.7281 0.2572
vn -0.9487 -0.3091 0.0669
vn -0.4642 -0.5833 -0.6665
vn -0.3126 -0.7174 -0.6226
vn 0.0979 -0.3538 -0.9302
vn 0.2056 -0.5167 -0.8311
vn 0.6226 -0.1450 -0.7690
vn 0.6349 -0.3809 -0.6722
vn 0.9446 0.0005 -0.3283
vn 0.9140 -0.2422 -0.3254
vn 0.9455 0.0135 0.3254
vn 0.9384 -0.2186 0.2675
vn 0.3529 -0.1268 0.9270
vn 0.3570 -0.3318 0.8732
vn 0.3182 0.2163 0.9230
vn 0.8787 0.3899 0.2755
vn -0.9889 0.1466 -0.0242
vn 0.6162 0.7571 0.2172
vn 0.8727 0.3415 -0.3491
vn 0.6561 0.6876 -0.3110
vn 0.5202 0.8353 -0.1782
vn 0.3447 0.5396 -0.7681
vn 0.1730 0.8031 -0.5702
vn 0.5282 0.1675 -0.8324
vn -0.1726 0.3384 -0.9250
vn -0.2415 0.5261 -0.8154
vn 0.4437 0.3592 -0.8210
vn 0.7706 0.5351 -0.3462
vn 0.7520 0.6242 0.2120
vn -0.0402 -0.0559 -0.9976
vn -0.1096 0.1590 -0.9812
vn -0.5929 -0.2402 -0.7686
vn -0.6185 0.0481 -0.7843
vn -0.9994 -0.0342 0.0043
vn -0.6299 0.2309 -0.7415
vn 0.2267 0.4365 0.8707
vn -0.6167 -0.1083 0.7797
vt 0.000000 0.000000
vt 0.000000 0.000000
vt 0.000000 0.000000
vt 0.000000 0.000000
vt 0.000000 0.000000
vt 0.000000 0.000000
vt 0.000000 0.000000
vt 0.000000 0.000000
vt 0.000000 0.000000
vt 0.000000 0.000000
vt 0.000000 0.000000
vt 0.000000 0.000000
vt 0.000000 0.000000
vt 0.000000 0.000000
vt 0.000000 0.000000
vt 0.000000 0.000000
vt 0.000000 0.000000
vt 0.000000 0.000000
vt 0.000000 0.000000
vt 0.000000 0.000000
vt 0.000000 0.000000
vt 0.000000 0.000000
vt 0.000000 0.000000
vt 0.000000 0.000000
vt 0.000000 0.000000
vt 0.000000 0.000000
vt 0.000000 0.000000
vt 0.000000 0.000000
vt 0.000000 0.000000
vt 0.000000 0.000000
vt 0.000000 0.000000
vt 0.000000 0.000000
vt 0.000000 0.000000
vt 0.000000 0.000000
vt 0.000000 0.000000
vt 0.000000 0.000000
vt 0.000000 0.000000
vt 0.000000 0.000000
vt 0.000000 0.000000
vt 0.000000 0.000000
vt 0.000000 0.000000
vt 0.000000 0.000000
vt 0.000000 0.000000
vt 0.000000 0.000000
vt 0.000000 0.000000
vt 0.000000 0.000000
vt 0.000000 0.000000
vt 0.000000 0.000000
vt 0.000000 0.000000
vt 0.000000 0.000000
vt 0.000000 0.000000
vt 0.000000 0.000000
vt 0.000000 0.000000
vt 0.000000 0.000000
vt 0.000000 0.000000
vt 0.000000 0.000000
vt 0.000000 0.000000
vt 0.000000 0.000000
vt 0.000000 0.000000
vt 0.000000 0.000000
vt 0.000000 0.000000
vt 0.000000 0.000000
vt 0.000000 0.000000
vt 0.000000 0.000000
vt 0.000000 0.000000
vt 0.000000 0.000000
vt 0.000000 0.000000
vt 0.000000 0.000000
vt 0.000000 0.000000
vt 0.000000 0.000000
vt 0.000000 0.000000
vt 0.000000 0.000000
vt 0.000000 0.000000
vt 0.000000 0.000000
vt 0.000000 0.000000
vt 0.000000 0.000000
vt 0.000000 0.000000
vt 0.000000 0.000000
vt 0.000000 0.000000
vt 0.000000 0.000000
vt 0.000000 0.000000
vt 0.000000 0.000000
vt 0.000000 0.000000
vt 0.000000 0.000000
vt 0.000000 0.000000
vt 0.000000 0.000000
vt 0.000000 0.000000
vt 0.000000 0.000000
vt 0.000000 0.000000
vt 0.000000 0.000000
vt 0.000000 0.000000
vt 0.000000 0.000000
vt 0.000000 0.000000
vt 0.000000 0.000000
vt 0.000000 0.000000
vt 0.000000 0.000000
vt 0.000000 0.000000
vt 0.000000 0.000000
vt 0.000000 0.000000
vt 0.000000 0.000000
vt 0.000000 0.000000
vt 0.000000 0.000000
vt 0.000000 0.000000
vt 0.000000 0.000000
vt 0.000000 0.000000
vt 0.000000 0.000000
vt 0.000000 0.000000
vt 0.000000 0.000000
vt 0.000000 0.000000
vt 0.000000 0.000000
vt 0.000000 0.000000
vt 0.000000 0.000000
vt 0.000000 0.000000
vt 0.000000 0.000000
vt 0.000000 0.000000
vt 0.000000 0.000000
vt 0.000000 0.000000
vt 0.000000 0.000000
vt 0.000000 0.000000
vt 0.000000 0.000000
vt 0.000000 0.000000
vt 0.000000 0.000000
vt 0.000000 0.000000
vt 0.000000 0.000000
s 1
usemtl fox
f 1/1/1 2/2/2 37/37/3 4/4/4
f 39/39/5 2/2/2 1/1/1 3/3/6
f 3/3/6 1/1/1 5/5/7 7/7/8
f 1/1/1 4/4/4 6/6/9 5/5/7
f 50/50/10 45/45/11 6/6/9 4/4/4
f 10/10/12 47/47/13 43/43/14 8/8/15
f 44/44/16 48/48/17 7/7/8 5/5/7
f 6/6/9 45/45/11 44/44/16 5/5/7
f 9/9/18 13/13/19 11/11/20 8/8/15
f 14/14/21 10/10/12 8/8/15 11/11/20
f 11/11/20 13/13/19 30/30/22 12/12/23
f 14/14/21 11/11/20 12/12/23 16/16/24
f 15/15/25 14/14/21 16/16/24 17/17/26
f 15/15/25 41/41/27 10/10/12 14/14/21
f 19/19/28 15/15/25 17/17/26 18/18/29
f 21/21/30 19/19/28 18/18/29 20/20/31
f 23/23/32 21/21/30 20/20/31 22/22/33
f 25/25/34 23/23/32 22/22/33 24/24/35
f 27/27/36 25/25/34 24/24/35 26/26/37
f 29/29/38 27/27/36 26/26/37 28/28/39
f 13/13/19 29/29/38 28/28/39 30/30/22
f 31/31/40 32/32/41 27/27/36 29/29/38
f 31/31/40 29/29/38 13/13/19 9/9/18
f 7/7/8 48/48/17 61/61/42 3/3/6
f 37/37/3 52/52/43 50/50/10 4/4/4
f 27/27/36 32/32/41 33/33/44 25/25/34
f 52/52/43 37/37/3 35/35/45 54/54/46
f 55/55/47 54/54/46 35/35/45 36/36/48
f 34/34/49 23/23/32 25/25/34 33/33/44
f 36/36/48 38/38/50 58/58/51 55/55/47
f 56/56/52 34/34/49 33/33/44 53/53/53
f 37/37/3 2/2/2 36/36/48 35/35/45
f 32/32/41 51/51/54 53/53/53 33/33/44
f 56/56/52 57/57/55 42/42/56 34/34/49
f 2/2/2 39/39/5 38/38/50 36/36/48
f 42/42/56 57/57/55 59/59/57 40/40/58
f 40/40/58 59/59/57 62/62/59 41/41/27
f 60/60/60 39/39/5 3/3/6 61/61/42
f 19/19/28 40/40/58 41/41/27 15/15/25
f 19/19/28 21/21/30 42/42/56 40/40/58
f 39/39/5 60/60/60 58/58/51 38/38/50
f 42/42/56 21/21/30 23/23/32 34/34/49
f 49/49/61 51/51/54 32/32/41 31/31/40
f 41/41/27 62/62/59 47/47/13 10/10/12
f 49/49/61 31/31/40 9/9/18 46/46/62
f 44/44/16 45/45/11 46/46/62 43/43/14
f 43/43/14 47/47/13 48/48/17 44/44/16
f 54/54/46 55/55/47 56/56/52 53/53/53
f 53/53/53 51/51/54 52/52/43 54/54/46
f 62/62/59 59/59/57 60/60/60 61/61/42
f 58/58/51 60/60/60 59/59/57 57/57/55
f 61/61/42 48/48/17 47/47/13 62/62/59
f 57/57/55 56/56/52 55/55/47 58/58/51
f 51/51/54 49/49/61 50/50/10 52/52/43
f 45/45/11 50/50/10 49/49/61 46/46/62
f 43/43/14 46/46/62 9/9/18 8/8/15
f 63/63/63 66/66/64 99/99/65 64/64/66
f 101/101/67 65/65/68 63/63/63 64/64/66
f 65/65/68 69/69/69 67/67/70 63/63/63
f 63/63/63 67/67/70 68/68/71 66/66/64
f 112/112/72 66/66/64 68/68/71 107/107/73
f 72/72/74 70/70/75 105/105/76 109/109/77
f 106/106/78 67/67/70 69/69/69 110/110/79
f 68/68/71 67/67/70 106/106/78 107/107/73
f 71/71/80 70/70/75 73/73/81 75/75/82
f 76/76/83 73/73/81 70/70/75 72/72/74
f 73/73/81 74/74/84 92/92/85 75/75/82
f 76/76/83 78/78/86 74/74/84 73/73/81
f 77/77/87 79/79/88 78/78/86 76/76/83
f 77/77/87 76/76/83 72/72/74 103/103/89
f 81/81/90 80/80/91 79/79/88 77/77/87
f 83/83/92 82/82/93 80/80/91 81/81/90
f 85/85/94 84/84/95 82/82/93 83/83/92
f 87/87/96 86/86/97 84/84/95 85/85/94
f 89/89/98 88/88/99 86/86/97 87/87/96
f 91/91/100 90/90/101 88/88/99 89/89/98
f 75/75/82 92/92/85 90/90/101 91/91/100
f 93/93/102 91/91/100 89/89/98 94/94/103
f 93/93/102 71/71/80 75/75/82 91/91/100
f 69/69/69 65/65/68 123/123/104 110/110/79
f 99/99/65 66/66/64 112/112/72 114/114/105
f 89/89/98 87/87/96 95/95/106 94/94/103
f 114/114/105 116/116/107 97/97/108 99/99/65
f 117/117/109 98/98/110 97/97/108 116/116/107
f 96/96/111 95/95/106 87/87/96 85/85/94
f 98/98/110 117/117/109 120/120/112 100/100/113
f 118/118/114 115/115/115 95/95/106 96/96/111
f 99/99/65 97/97/108 98/98/110 64/64/66
f 94/94/103 95/95/106 115/115/115 113/113/116
f 118/118/114 96/96/111 104/104/117 119/119/118
f 64/64/66 98/98/110 100/100/113 101/101/67
f 104/104/117 102/102/119 121/121/120 119/119/118
f 102/102/119 103/103/89 124/124/121 121/121/120
f 122/122/122 123/123/104 65/65/68 101/101/67
f 81/81/90 77/77/87 103/103/89 102/102/119
f 81/81/90 102/102/119 104/104/117 83/83/92
f 101/101/67 100/100/113 120/120/112 122/122/122
f 104/104/117 96/96/111 85/85/94 83/83/92
f 111/111/123 93/93/102 94/94/103 113/113/116
f 103/103/89 72/72/74 109/109/77 124/124/121
f 111/111/123 108/108/124 71/71/80 93/93/102
f 106/106/78 105/105/76 108/108/124 107/107/73
f 105/105/76 106/106/78 110/110/79 109/109/77
f 116/116/107 115/115/115 118/118/114 117/117/109
f 115/115/115 116/116/107 114/114/105 113/113/116
f 124/124/121 123/123/104 122/122/122 121/121/120
f 120/120/112 119/119/118 121/121/120 122/122/122
f 123/123/104 124/124/121 109/109/77 110/110/79
f 119/119/118 120/120/112 117/117/109 118/118/114
f 113/113/116 114/114/105 112/112/72 111/111/123
f 107/107/73 108/108/124 111/111/123 112/112/72
f 105/105/76 70/70/75 71/71/80 108/108/124
