# Blender 3.4.1
# www.blender.org
mtllib cone.mtl
o vlc_player
v 0.000000 -0.142072 -0.214703 1.0000 0.5373 0.0000
v 0.000000 -0.100035 -0.164090 1.0000 0.5373 0.0000
v 0.151818 -0.142072 -0.151818 1.0000 0.5373 0.0000
v 0.116029 -0.100035 -0.116029 1.0000 0.5373 0.0000
v 0.214703 -0.142073 -0.000000 1.0000 0.5373 0.0000
v 0.164090 -0.100035 -0.000000 1.0000 0.5373 0.0000
v 0.151818 -0.142073 0.151818 1.0000 0.5373 0.0000
v 0.116029 -0.100035 0.116029 1.0000 0.5373 0.0000
v 0.000000 -0.142073 0.214703 1.0000 0.5373 0.0000
v 0.000000 -0.100035 0.164090 1.0000 0.5373 0.0000
v -0.151818 -0.142073 0.151818 1.0000 0.5373 0.0000
v -0.116029 -0.100035 0.116029 1.0000 0.5373 0.0000
v -0.214703 -0.142073 -0.000000 1.0000 0.5373 0.0000
v -0.164089 -0.100035 -0.000000 1.0000 0.5373 0.0000
v -0.151818 -0.142072 -0.151818 1.0000 0.5373 0.0000
v -0.116029 -0.100035 -0.116029 1.0000 0.5373 0.0000
v 0.151818 -0.100035 -0.151818 1.0000 0.5373 0.0000
v 0.000000 -0.100034 -0.214703 1.0000 0.5373 0.0000
v 0.214703 -0.100035 -0.000000 1.0000 0.5373 0.0000
v 0.151818 -0.100035 0.151818 1.0000 0.5373 0.0000
v 0.000000 -0.100035 0.214703 1.0000 0.5373 0.0000
v -0.151818 -0.100035 0.151818 1.0000 0.5373 0.0000
v -0.214703 -0.100035 -0.000000 1.0000 0.5373 0.0000
v -0.151818 -0.100035 -0.151818 1.0000 0.5373 0.0000
v 0.036278 0.315219 -0.036278 1.0000 0.5373 0.0000
v 0.000000 0.315219 -0.051305 1.0000 0.5373 0.0000
v 0.051305 0.315219 0.000000 1.0000 0.5373 0.0000
v 0.036278 0.315219 0.036278 1.0000 0.5373 0.0000
v 0.000000 0.315219 0.051305 1.0000 0.5373 0.0000
v -0.036278 0.315219 0.036278 1.0000 0.5373 0.0000
v -0.051304 0.315219 0.000000 1.0000 0.5373 0.0000
v -0.036278 0.315219 -0.036278 1.0000 0.5373 0.0000
v 0.000000 -0.016773 -0.141475 1.0000 0.7686 0.4980
v 0.000000 0.043694 -0.125052 1.0000 0.7686 0.4980
v 0.088426 0.043694 -0.088425 1.0000 0.7686 0.4980
v 0.100039 -0.016773 -0.100038 1.0000 0.7686 0.4980
v -0.100038 -0.016773 -0.100038 1.0000 0.7686 0.4980
v -0.088425 0.043694 -0.088425 1.0000 0.7686 0.4980
v -0.100038 -0.016773 0.100038 1.0000 0.7686 0.4980
v -0.088425 0.043694 0.088425 1.0000 0.7686 0.4980
v -0.125052 0.043694 0.000000 1.0000 0.7686 0.4980
v -0.141475 -0.016773 -0.000000 1.0000 0.7686 0.4980
v 0.100039 -0.016773 0.100038 1.0000 0.7686 0.4980
v 0.088426 0.043694 0.088425 1.0000 0.7686 0.4980
v 0.000000 0.043694 0.125052 1.0000 0.7686 0.4980
v 0.000000 -0.016773 0.141475 1.0000 0.7686 0.4980
v 0.125052 0.043694 0.000000 1.0000 0.7686 0.4980
v 0.141476 -0.016773 -0.000000 1.0000 0.7686 0.4980
vn -0.0000 -0.0000 -1.0000
vn 0.7071 -0.0000 -0.7071
vn 1.0000 -0.0000 -0.0000
vn 0.7071 -0.0000 0.7071
vn -0.0000 -0.0000 1.0000
vn -0.7071 -0.0000 0.7071
vn -1.0000 -0.0000 -0.0000
vn -0.7071 -0.0000 -0.7071
vn -0.0000 -1.0000 -0.0000
vn -0.0000 1.0000 -0.0000
vn 0.9650 0.2621 -0.0000
vn 0.6824 0.2621 0.6824
vn -0.0000 0.2621 0.9650
vn -0.6824 0.2621 0.6824
vn -0.9650 0.2621 -0.0000
vn -0.6824 0.2621 -0.6824
vn 0.6824 0.2621 -0.6824
vn -0.0000 0.2621 -0.9650
vt 1.000000 0.500000
vt 0.000000 0.500000
vt 0.750000 0.490000
vt 0.250000 0.433423
vt 0.875000 0.500000
vt 0.919706 0.419706
vt 0.379700 0.379700
vt 0.750000 0.500000
vt 0.990000 0.250000
vt 0.433423 0.250000
vt 0.625000 0.500000
vt 0.919706 0.080294
vt 0.379700 0.120300
vt 0.500000 0.500000
vt 0.750000 0.010000
vt 0.250000 0.066577
vt 0.375000 0.500000
vt 0.580294 0.080294
vt 0.120300 0.120300
vt 0.250000 0.500000
vt 0.510000 0.250000
vt 0.066577 0.250000
vt 0.125000 0.500000
vt 0.580294 0.419706
vt 0.120300 0.379700
vt 0.875000 1.000000
vt 0.419706 0.419706
vt 1.000000 1.000000
vt 0.000000 1.000000
vt 0.250000 0.490000
vt 0.750000 1.000000
vt 0.490000 0.250000
vt 0.625000 1.000000
vt 0.419706 0.080294
vt 0.500000 1.000000
vt 0.250000 0.010000
vt 0.375000 1.000000
vt 0.080294 0.080294
vt 0.250000 1.000000
vt 0.010000 0.250000
vt 0.125000 1.000000
vt 0.080294 0.419706
vt 0.379700 0.379700
vt 0.250000 0.433423
vt 0.433423 0.250000
vt 0.379700 0.120300
vt 0.250000 0.066577
vt 0.120300 0.120300
vt 0.066577 0.250000
vt 0.120300 0.379700
vt 0.250000 0.433423
vt 0.250000 0.433423
vt 0.379700 0.379700
vt 0.379700 0.379700
vt 0.120300 0.379700
vt 0.120300 0.379700
vt 0.120300 0.120300
vt 0.120300 0.120300
vt 0.066577 0.250000
vt 0.066577 0.250000
vt 0.379700 0.120300
vt 0.379700 0.120300
vt 0.250000 0.066577
vt 0.250000 0.066577
vt 0.433423 0.250000
vt 0.433423 0.250000
s 1
f 1/1/1 18/28/1 17/26/2 3/5/2
f 3/5/2 17/26/2 19/31/3 5/8/3
f 5/8/3 19/31/3 20/33/4 7/11/4
f 7/11/4 20/33/4 21/35/5 9/14/5
f 9/14/5 21/35/5 22/37/6 11/17/6
f 11/17/6 22/37/6 23/39/7 13/20/7
f 13/20/7 23/39/7 24/41/8 15/23/8
f 15/23/8 24/41/8 18/29/1 1/2/1
f 1/3/9 3/6/9 5/9/9 7/12/9 9/15/9 11/18/9 13/21/9 15/24/9
f 2/4/10 4/7/10 17/27/10 18/30/10
f 4/7/10 6/10/10 19/32/10 17/27/10
f 6/10/10 8/13/10 20/34/10 19/32/10
f 8/13/10 10/16/10 21/36/10 20/34/10
f 10/16/10 12/19/10 22/38/10 21/36/10
f 12/19/10 14/22/10 23/40/10 22/38/10
f 14/22/10 16/25/10 24/42/10 23/40/10
f 16/25/10 2/4/10 18/30/10 24/42/10
f 25/43/10 26/44/10 32/50/10 31/49/10 30/48/10 29/47/10 28/46/10 27/45/10
f 47/65/11 27/45/11 28/46/12 44/62/12
f 45/63/13 29/47/13 30/48/14 40/58/14
f 41/59/15 31/49/15 32/50/16 38/56/16
f 35/53/17 25/43/17 27/45/11 47/65/11
f 44/62/12 28/46/12 29/47/13 45/63/13
f 40/58/14 30/48/14 31/49/15 41/59/15
f 38/56/16 32/50/16 26/44/18 34/52/18
f 34/52/18 26/44/18 25/43/17 35/53/17
f 2/4/18 33/51/18 36/54/17 4/7/17
f 33/51/18 34/52/18 35/53/17 36/54/17
f 16/25/16 37/55/16 33/51/18 2/4/18
f 37/55/16 38/56/16 34/52/18 33/51/18
f 12/19/14 39/57/14 42/60/15 14/22/15
f 39/57/14 40/58/14 41/59/15 42/60/15
f 8/13/12 43/61/12 46/64/13 10/16/13
f 43/61/12 44/62/12 45/63/13 46/64/13
f 4/7/17 36/54/17 48/66/11 6/10/11
f 36/54/17 35/53/17 47/65/11 48/66/11
f 14/22/15 42/60/15 37/55/16 16/25/16
f 42/60/15 41/59/15 38/56/16 37/55/16
f 10/16/13 46/64/13 39/57/14 12/19/14
f 46/64/13 45/63/13 40/58/14 39/57/14
f 6/10/11 48/66/11 43/61/12 8/13/12
f 48/66/11 47/65/11 44/62/12 43/61/12
